<?xml version="1.0" encoding="utf-8"?>
<!-- Generator: Adobe Illustrator 16.2.1, SVG Export Plug-In . SVG Version: 6.00 Build 0)  -->
<!DOCTYPE svg PUBLIC "-//W3C//DTD SVG 1.1//EN" "http://www.w3.org/Graphics/SVG/1.1/DTD/svg11.dtd">
<svg version="1.1" id="Layer_1" xmlns="http://www.w3.org/2000/svg" xmlns:xlink="http://www.w3.org/1999/xlink" x="0px" y="0px"
	 width="197.704px" height="136.547px" viewBox="0 0 197.704 136.547" enable-background="new 0 0 197.704 136.547"
	 xml:space="preserve">
<g>
	<g>
		<g>
			<path fill="#E8E1DA" d="M79.161,77.243c-0.308,0-0.606-0.128-0.82-0.365l-8.55-9.404c-0.186-0.202-0.287-0.468-0.287-0.745
				V26.332c0-0.345,0.159-0.674,0.432-0.885l8.113-6.204V0h2.22v76.132c0,0.461-0.282,0.869-0.709,1.035
				C79.432,77.219,79.294,77.243,79.161,77.243z M71.722,66.3l6.327,6.961v-51.22l-6.327,4.838V66.3z"/>
			<rect x="79.161" y="18.682" fill="#E8E1DA" width="54.337" height="2.221"/>
			<path fill="#E8E1DA" d="M123.575,79.885c-0.291,0-0.57-0.116-0.783-0.325l-8.414-8.381c-0.205-0.211-0.324-0.493-0.324-0.79
				V46.572H52.017V44.35h62.037V19.792h2.223V44.35h7.299c0.613,0,1.111,0.497,1.111,1.112v33.312c0,0.448-0.27,0.853-0.688,1.023
				C123.864,79.857,123.717,79.885,123.575,79.885z M116.276,69.934l6.188,6.167V46.572h-6.188V69.934z"/>
		</g>
		<rect x="72.759" y="24.984" fill="#E8E1DA" width="0.684" height="43.937"/>
		<rect x="74.544" y="23.059" fill="#E8E1DA" width="0.682" height="49.218"/>
		<polygon fill="#E8E1DA" points="76.991,74.769 76.308,74.135 76.308,21.966 76.991,21.966 		"/>
		<g>
			<rect x="117.327" y="44.51" fill="#E8E1DA" width="0.684" height="27.93"/>
			<rect x="119.11" y="44.51" fill="#E8E1DA" width="0.689" height="30.782"/>
			<polygon fill="#E8E1DA" points="121.563,78.092 120.879,76.999 120.879,44.51 121.563,44.51 			"/>
		</g>
	</g>
	<g>
		<g>
			<path fill="#E8E1DA" d="M48.582,128.977c0,4.964-2.85,7.547-7.108,7.547c-4.212,0-7.085-2.583-7.085-7.401v-9.907h1.922v9.784
				c0,3.678,1.947,5.747,5.212,5.747c3.14,0,5.137-1.901,5.137-5.624v-9.907h1.923V128.977z"/>
			<path fill="#E8E1DA" d="M78.836,131.581H78.74l-6.209-9.106v13.78h-1.872v-17.04h1.947l6.206,9.3l6.209-9.3h1.947v17.04h-1.926
				v-13.803L78.836,131.581z"/>
			<path fill="#E8E1DA" d="M152.985,136.547c-5.189,0-8.672-4.065-8.672-8.789c0-4.721,3.535-8.836,8.719-8.836
				s8.668,4.067,8.668,8.788C161.7,132.433,158.168,136.547,152.985,136.547z M152.985,120.697c-3.895,0-6.674,3.119-6.674,7.013
				c0,3.895,2.826,7.061,6.721,7.061s6.67-3.118,6.67-7.013C159.702,123.862,156.879,120.697,152.985,120.697z"/>
			<path fill="#E8E1DA" d="M195.825,119.215h1.879v17.04h-1.533l-11.008-13.975v13.975h-1.875v-17.04h1.805l10.732,13.655V119.215z"
				/>
			<polygon fill="#E8E1DA" points="123.118,136.255 125.184,136.255 117.422,119.096 115.62,119.096 107.856,136.255 
				109.824,136.255 116.495,121.332 			"/>
			<g>
				<polygon fill="#E8E1DA" points="6.887,126.661 14.193,119.215 11.707,119.215 4.455,126.751 12.098,136.255 14.506,136.255 				
					"/>
				<rect y="119.215" fill="#E8E1DA" width="1.919" height="17.04"/>
			</g>
		</g>
		<g>
			<g>
				<path fill="#E8E1DA" d="M91.358,99.14l-1.111,4.035c-0.146,0.531-0.231,0.94-0.231,1.168c0,0.445,0.196,0.619,0.585,0.619
					c0.653,0,1.2-0.883,1.731-1.963l0.8,0.228c-0.941,2.569-2.269,3.01-2.993,3.01c-1.117,0-1.785-0.547-1.785-1.59
					c0-0.584,0.229-1.382,0.353-1.877l0.992-3.63h-1.613l0.248-0.955h1.613l0.583-2.141l1.717-0.175l-0.636,2.315h2.478
					l-0.269,0.955H91.358z"/>
				<path fill="#E8E1DA" d="M100.208,104.646c0-1.894,1.168-3.522,1.168-4.847c0-0.465-0.18-0.624-0.461-0.624
					c-0.883,0-2.706,1.697-4.106,6.902h-1.751l2.904-10.885H96.35l0.337-1.272h3.236l-2.21,7.608l0.105,0.056
					c1.114-2.388,2.53-3.753,3.735-3.753c0.939,0,1.484,0.831,1.484,1.876c0,1.437-1.258,3.646-1.258,4.866
					c0,0.25,0.092,0.388,0.318,0.388c0.406,0,0.799-0.709,1.205-1.819l0.777,0.23c-0.705,2.21-1.625,2.863-2.438,2.863
					C100.825,106.236,100.208,105.689,100.208,104.646z"/>
				<path fill="#E8E1DA" d="M107.725,102.806c-0.018,0.211-0.036,0.405-0.036,0.583c0,1.38,0.728,1.856,1.632,1.856
					c0.916,0,1.839-0.706,2.529-1.77l0.729,0.424c-0.869,1.364-1.933,2.337-3.772,2.337c-1.63,0-2.831-1.253-2.831-3.147
					c0-2.692,2.409-5.257,4.988-5.257c1.363,0,2.105,0.71,2.105,1.719C113.069,101.088,111.387,102.504,107.725,102.806z
					 M107.905,102.009c2.6-0.334,3.648-1.238,3.648-2.423c0-0.465-0.285-0.869-0.87-0.869
					C109.357,98.717,108.328,100.451,107.905,102.009z"/>
			</g>
		</g>
	</g>
</g>
</svg>
