<svg xmlns="http://www.w3.org/2000/svg" viewBox="0 0 1491.98 535.46"><defs><style>.cls-1{fill:#231f20;}</style></defs><g id="Layer_2" data-name="Layer 2"><g id="Layer_1-2" data-name="Layer 1"><path class="cls-1" d="M480.21,46.39c.55,4.87,2.42,9.39,3.32,14.14a19.1,19.1,0,0,1-2,13.35c-3.35,6-9.35,10.25-15.18,13.59-10.41,6-22.63,10.67-34.76,10.29-27-.83-49.14-21.29-49.46-48.29C382,36,388,24.22,396.77,15.27S417,.17,430.45,0c27-.32,46.63,18.84,49.76,46.39"/><path class="cls-1" d="M671,150.52l0,0,0,0"/><path class="cls-1" d="M671.19,150.8l-.19-.24c.18.25.24.31.19.24"/><path class="cls-1" d="M671,150.52l0,0,.2.24"/><path class="cls-1" d="M392.5,125h-.42l60,.16h4.52l17.26,0c.61,0,1.23,0,1.85,0a9.4,9.4,0,0,1,6.48,3.43c5.75,7.63,12.39,16.23,18.05,23.79,7.1,9.48,15.35,18.64,21.27,28.9,3.37,5.86,5.64,11.94,6,18,.82,14.18-5.89,28.55-12.44,41.41-11.49,22.52-20.83,46.83-24,72.06-3.05,24.37.66,46.86,14.94,67,3.43,4.84,6.79,9.7,10.17,14.57a9.2,9.2,0,0,1,2,4.92,4.41,4.41,0,0,1-4.47,4.43l-1.82,0H506.7l-88.78-.24c-7.07,0-14.16-.16-21.22,0a7,7,0,0,1-4.69-1.23,4.72,4.72,0,0,1-1.61-3.78c.16-3.66,4.67-7.36,7-9.88a110.53,110.53,0,0,0,8.26-9.46,52.3,52.3,0,0,0,9-22.25c5.23-29.76-5.61-54-3.11-83.68,1.68-19.92,9.22-36.95,18.19-54.46,7.77-15.15,8.33-31.65-4.21-44.4l-35.92-40.39c-1.07-1.1-2.67-3.31-1.88-5.48A4.8,4.8,0,0,1,392.5,125"/><path class="cls-1" d="M374.6,347.47a11.76,11.76,0,0,0-2,.46c-.87.26-1.73.54-2.58.85-1.71.6-3.38,1.29-5,2s-3.3,1.5-4.94,2.26-3.28,1.52-5,2.24-3.33,1.39-5,2c-.78.27-1.56.51-2.36.74a42.52,42.52,0,0,1-16.1,1.53c-10.13-1.26-14.89-9-16.5-13.68a23,23,0,0,1-.67-2.95c-.19-1.12-.28-4.39-.29-5.51,0-3-.11-6.77-.1-7.61.14-9.58.2-32.46.22-39.23,0-10.24.23-20.81.21-31.58,0-29.82,0-61.13,0-90.57a7.14,7.14,0,0,1,6.9-7.51c.4,0,.79,0,1.18,0,11,0,22,.3,32.93.15,2.53,0,5.05-.09,7.58-.18,1.78-.07,3.89-.82,4.8-2.48s.27-3.92-.46-5.43a54.33,54.33,0,0,0-4.22-6.81,72.48,72.48,0,0,0-5.49-7.92c-1.65-2.27-3.36-4.51-5.16-6.67a22.4,22.4,0,0,0-6.09-5.43c-3-1.64-8-1.61-11.22-1.62-1.74,0-11.1,0-12.86,0s-3.93,0-5.53-1.13a5.21,5.21,0,0,1-2.08-4.3c0-.32,0-.63,0-.94,0-24.39.1-52.74.14-68.08,0-6.29-6.34-8.9-10.49-5A1174.57,1174.57,0,0,1,205,147.29a13.32,13.32,0,0,0-1.68,2.08,11.61,11.61,0,0,0-1,1.9,7.19,7.19,0,0,0,1.45,7.16c1.72,1.87,3.76,2.51,7,2.4s7.56,0,10.88,0a7.45,7.45,0,0,1,6.7,3.22,7.19,7.19,0,0,1,1.27,3.34,23.12,23.12,0,0,1-.06,3.33c0,2.09-.16,4.55-.17,6.17q-.08,30.5-.21,61-.1,27.48-.18,55c0,16,0,31.95-.17,47.92s-1.46,32.33,7.88,45.65c7.85,11.2,21.35,16.87,34.52,18.79a161.76,161.76,0,0,0,23,1.43c1.59,0,3.18,0,4.77-.13s3.15-.23,4.71-.41,3.12-.4,4.67-.67,3.07-.57,4.6-.92,3-.72,4.52-1.14,3-.88,4.44-1.36,2.91-1,4.35-1.57,2.85-1.13,4.25-1.74,2.78-1.25,4.14-1.92,2.7-1.35,4-2.07,2.61-1.44,3.89-2.2,2.53-1.53,3.76-2.33,2.43-1.61,3.62-2.44,2.32-1.67,3.46-2.53,2.22-1.72,3.3-2.61,2.1-1.76,3.13-2.67,2-1.79,2.94-2.72,1.86-1.81,2.76-2.74,1.72-1.82,2.56-2.76,1.59-1.82,2.35-2.76,1.44-1.81,2.14-2.74,1.29-1.8,1.91-2.72,1.14-1.76,1.67-2.66,1-1.73,1.44-2.61.82-1.67,1.18-2.53a18,18,0,0,0,.95-2.57,4.82,4.82,0,0,0-1-4.06,4.7,4.7,0,0,0-4.05-1.63h-.1"/><path class="cls-1" d="M109.81,234.59C68,223.47,61.28,212.32,60,186.92c-1.45-29.1,28.51-39.64,43.28-37.09,9.74,1.68,28.41,18,37.47,26.18,6.4,5.79,22.35,21.17,22.35,21.17,2.56,1.88,4.87,3.11,7.37,3a6.7,6.7,0,0,0,6.63-5.69c0-14.73,0-16.56,0-28.74,0-10.12-2.69-16.44-13.28-21.21-13.78-6.35-36.55-12.72-62.51-12.72-61.44,0-95.9,34.46-95.9,82.13s27,80.47,84.74,93.19c39.73,9,42.93,26.46,42.93,49.24,0,10.2-3.23,21.41-12.26,27.58-11.09,7.59-24.38,8.4-37.7,7.48C67.93,390.43,59.78,384.7,49.4,374,38.31,362.51,26.91,352,15.29,341c-2.08-2-4.18-5.14-9.16-4.86-3.7.2-6.13,3.4-6.13,7.68,0,12.82,0,18.72,0,28.46,0,13.26,8.71,18.43,12.89,20.42,23.57,11.23,47.65,16.1,73.6,16.1,61.45,0,107-34.43,107-89.52,0-44-24.35-71-83.67-84.73"/><path class="cls-1" d="M777.59,129.88c-.23-4.62-1.61-9.47-4.78-13-4.64-5.09-11.86-5.41-18.19-4.07-.71.15-1.42.32-2.12.51-11.68,3.12-22.87,9.27-33.44,15-5.37,2.9-14.6,9-21.24,13.47v-.21c-2.44,1.63-4.86,3.27-7.25,4.95-2.21,1.54-4.4,3.12-6.58,4.72-1.68,1.23-3.46,2.82-5.66,1.79a9.57,9.57,0,0,1-2.92-2.54,152.46,152.46,0,0,0-24.21-22,16.78,16.78,0,0,0-6.37-2.52,58,58,0,0,0-11.54-.89l-27.24.1-37,.14-17.88.06s-4.58-.1-5.62,4.07a5.07,5.07,0,0,0,1.72,4.8s20.89,14.47,33.08,22.93c14.5,10.05,31,24.36,29.86,43.82-.55,9.3-6.32,17.68-11.06,25.36-12.31,19.94-28.63,38.38-33.78,61.85-3.94,17.91-2.79,36.05-.52,54,.72,5.77,1.93,11.57,1.9,17.4a35,35,0,0,1-4.82,17,84.67,84.67,0,0,1-7.53,11c-2.18,2.77-5.53,5.63-7.09,8.75a5.28,5.28,0,0,0,.34,5.73c1.45,1.66,3.95,1.78,6.15,1.77,39.07-.16,78.15.1,117.23.26a9.05,9.05,0,0,0,3.48-.45,4.58,4.58,0,0,0,2.3-6.17,9.93,9.93,0,0,0-2.35-2.62c-5.4-4.66-10.06-9.26-13.89-15.32-15.57-24.66-15.14-47.16-14.19-56,.28-2.5.52-6,.67-7A165.84,165.84,0,0,1,676,245c7.75-10.74,14.43-18.15,17.87-31.27,2.13-8.14.59-18.85-.92-26.88s1.77-14,10.47-14.22c5.57-.13,9.75,3.74,10.55,4.58,38.68,40.09,51,42,54.68,42,5.57.19,8.9-5.19,8.51-10.29-.61-7.86-2.55-15.67-3.42-23.52a141.35,141.35,0,0,1-.32-30.29c.63-6.1,4.24-23.48,4.16-25.22"/><path class="cls-1" d="M867.55,404.35l-42.35-167c-.69-2.43.35-3.82,2.78-3.82h3.47a3.51,3.51,0,0,1,3.82,3.13l37.48,153.77c.35,1.39,1,1.39,1.39,0L911.63,236.7a3.51,3.51,0,0,1,3.82-3.13h3.82a3.5,3.5,0,0,1,3.81,3.13l38.19,153.42c.34,1.39,1,1.39,1.38,0l37.84-153.42a3.51,3.51,0,0,1,3.82-3.13h3.47c2.43,0,3.47,1.39,2.78,3.82l-42.7,167a3.5,3.5,0,0,1-3.82,3.12h-4.16a3.5,3.5,0,0,1-3.82-3.12L918.22,255.09c-.34-1-1-1.38-1.38,0L879.35,404.35a3.5,3.5,0,0,1-3.82,3.12h-4.16A3.49,3.49,0,0,1,867.55,404.35Z"/><path class="cls-1" d="M1046.65,362.35c-1.74-12.49-1.39-26-1.39-42,0-16.31,0-29.5,1-41.65,3.47-28.12,24.65-47.9,55.19-47.9s52.42,19.78,55.19,47.9c1.39,12.49,1.39,26,1.39,41.65,0,16.66,0,29.85-1.39,42-3.12,28.12-24.64,47.9-55.19,47.9S1050.12,390.47,1046.65,362.35ZM1147,359.57c.7-10.06.35-23.95.35-38.87,0-16.32.35-29.16-.35-39.22-2.43-24.3-20.13-41-45.47-41s-42.69,16.66-45.12,41c-.69,10.06-.69,23.95-.69,39.22,0,16,0,28.81.69,38.87,2.43,24.3,19.78,41,45.12,41S1144.53,383.87,1147,359.57Z"/><path class="cls-1" d="M1282.68,236a3.45,3.45,0,0,1,1.73,4.52l-1.38,4.16c-.7,2.43-2.43,2.78-4.52,1.74-3.81-1.74-8.33-2.78-14.92-2.78-24.3.35-41.65,24.3-41.65,53.8V404a3.28,3.28,0,0,1-3.48,3.47H1215a3.28,3.28,0,0,1-3.47-3.47V237.05a3.28,3.28,0,0,1,3.47-3.48h3.47a3.29,3.29,0,0,1,3.48,3.48v24.64c0,1.39,1,1.39,1.73.35,8-18.4,22.22-29.85,41.65-29.85C1273.31,232.19,1278.17,233.57,1282.68,236Z"/><path class="cls-1" d="M1319.12,404V168a3.28,3.28,0,0,1,3.47-3.47h3.47a3.28,3.28,0,0,1,3.47,3.47V404a3.27,3.27,0,0,1-3.47,3.47h-3.47A3.28,3.28,0,0,1,1319.12,404Z"/><path class="cls-1" d="M1485,164.5h3.48A3.28,3.28,0,0,1,1492,168V404a3.28,3.28,0,0,1-3.47,3.47H1485a3.28,3.28,0,0,1-3.47-3.47V387c0-1.39-1-1.39-1.39-.35-7.28,13.88-20.13,23.6-42.34,23.6-28.47,0-45.13-11.11-53.8-45.12a160.88,160.88,0,0,1-5.56-41c0-11.11,1.39-31.24,4.17-44.43,7.29-35.06,26.38-48.6,57.62-48.6,23.25,0,34,9.72,39.91,23.61.35,1.39,1.39,1,1.39-.35V168A3.28,3.28,0,0,1,1485,164.5Zm-4.16,156.2c0-20.48-2.08-39.22-7.64-53.11-6.59-16.66-16.31-27.42-35.75-27.42-20.13,0-31.59,10.07-38.88,26.38-5.9,13.54-9,32.28-9,54.15,0,19.78,2.08,38.18,6.94,51.37,7.29,18.4,18,29.16,40.27,29.16,20.13,0,30.54-10.76,37.14-28.47C1478.79,359.57,1480.87,341.18,1480.87,320.7Z"/><path class="cls-1" d="M4.23,510.22v-.71a.75.75,0,0,1,.79-.79H8.87a.75.75,0,0,1,.79.79v.55c0,3.3,3.22,6.21,8,6.21s7.71-2.75,7.71-6.37c0-4.25-4.25-5.66-8.89-7.23-5.59-1.89-12-4.25-12-11.72,0-6.77,5.19-10.93,12.9-10.93,8,0,13.14,4.56,13.14,10.93v.15a.75.75,0,0,1-.79.79H26.17a.74.74,0,0,1-.78-.79v-.31c0-3.46-3.07-6.21-7.95-6.21-4.56,0-7.55,2.51-7.55,6.05,0,4.09,3.93,5.51,8.65,7.16C24.21,499.68,31,502,31,509.59c0,6.68-5.19,11-13.29,11S4.23,516.19,4.23,510.22Z"/><path class="cls-1" d="M61.32,510.29a.75.75,0,0,1,1-.55l3.62.71a.68.68,0,0,1,.55.94c-1.73,5.82-6.69,9.44-13.45,9.44-7.79,0-12.74-4.48-13.84-11.24a55.76,55.76,0,0,1-.48-9.28A61.66,61.66,0,0,1,39,491.5c.86-6.92,6.13-11.72,13.76-11.72,8.18,0,13.45,5.19,14.08,12.58.24,2.6.24,6,.24,9.52a.75.75,0,0,1-.79.79H44.57a.28.28,0,0,0-.31.31c0,2,.08,3.93.16,5.43A8.23,8.23,0,0,0,53.07,516,8.41,8.41,0,0,0,61.32,510.29Zm-16.9-18.08c-.08,1.65-.16,3.53-.16,5.5a.29.29,0,0,0,.31.32h16.6a.29.29,0,0,0,.31-.32c0-2-.16-3.85-.31-5.43a8.1,8.1,0,0,0-8.34-7.62C48,484.66,45,487.8,44.42,492.21Z"/><path class="cls-1" d="M98.28,510.29a.75.75,0,0,1,1-.55l3.62.71a.68.68,0,0,1,.55.94c-1.73,5.82-6.69,9.44-13.45,9.44-7.79,0-12.74-4.48-13.84-11.24a55.76,55.76,0,0,1-.48-9.28A61.66,61.66,0,0,1,76,491.5c.86-6.92,6.13-11.72,13.76-11.72,8.18,0,13.45,5.19,14.08,12.58.24,2.6.24,6,.24,9.52a.75.75,0,0,1-.79.79H81.53a.28.28,0,0,0-.31.31c0,2,.08,3.93.16,5.43A8.23,8.23,0,0,0,90,516,8.41,8.41,0,0,0,98.28,510.29Zm-16.9-18.08c-.08,1.65-.16,3.53-.16,5.5a.29.29,0,0,0,.31.32h16.6a.29.29,0,0,0,.31-.32c0-2-.16-3.85-.31-5.43a8.1,8.1,0,0,0-8.34-7.62C85,484.66,81.93,487.8,81.38,492.21Z"/><path class="cls-1" d="M111.65,515.64a4.41,4.41,0,0,1,8.81,0,4.3,4.3,0,0,1-4.4,4.41A4.26,4.26,0,0,1,111.65,515.64Z"/><path class="cls-1" d="M161.75,484.81h-7.48a.34.34,0,0,0-.31.32v23.59c0,5.11,2,6.61,6.13,6.61h1.34a.74.74,0,0,1,.79.78v3.31a.7.7,0,0,1-.79.78c-.78,0-1.57.08-2.44.08-6.21,0-10.46-1.81-10.46-9.83V485.13a.33.33,0,0,0-.31-.32h-3.93a.74.74,0,0,1-.79-.78v-2.84a.74.74,0,0,1,.79-.78h3.93a.33.33,0,0,0,.31-.32v-9a.75.75,0,0,1,.79-.79h3.85a.75.75,0,0,1,.79.79v9a.34.34,0,0,0,.31.32h7.48a.73.73,0,0,1,.78.78V484A.73.73,0,0,1,161.75,484.81Z"/><path class="cls-1" d="M198.63,492.91v26.51a.74.74,0,0,1-.79.78h-4a.74.74,0,0,1-.79-.78V493.7c0-5.51-3.06-9-7.94-9s-8.18,3.54-8.18,9.13v25.56a.73.73,0,0,1-.78.78h-4a.73.73,0,0,1-.78-.78V465.94a.74.74,0,0,1,.78-.79h4a.74.74,0,0,1,.78.79v18.32c0,.24.16.4.4.16,2.12-3.15,5.5-4.56,9.43-4.56C194.07,479.86,198.63,484.81,198.63,492.91Z"/><path class="cls-1" d="M208.46,468.77a4.21,4.21,0,0,1,4.4-4.41,4.41,4.41,0,1,1-4.4,4.41ZM210,519.42V481.19a.74.74,0,0,1,.79-.78h4a.73.73,0,0,1,.78.78v38.23a.73.73,0,0,1-.78.78h-4A.74.74,0,0,1,210,519.42Z"/><path class="cls-1" d="M254.78,492.91v26.51a.74.74,0,0,1-.79.78h-4a.74.74,0,0,1-.79-.78V493.7c0-5.51-3.06-9-7.94-9s-8.18,3.54-8.18,9.13v25.56a.74.74,0,0,1-.79.78h-4a.73.73,0,0,1-.78-.78V481.19a.73.73,0,0,1,.78-.78h4a.74.74,0,0,1,.79.78v3.07c0,.24.16.4.39.16,2.13-3.15,5.51-4.56,9.44-4.56C250.22,479.86,254.78,484.81,254.78,492.91Z"/><path class="cls-1" d="M265.31,519.42V465.94a.75.75,0,0,1,.79-.79h4a.75.75,0,0,1,.79.79v31.93c0,.23.23.39.39.16l14.24-17.15a1.12,1.12,0,0,1,.94-.47H291c.63,0,.87.39.47.94l-9,11.17c-.08.16-.16.24-.08.39L293,519.26a.63.63,0,0,1-.63.94H288.2a.81.81,0,0,1-.86-.63l-8.58-22.49c-.08-.23-.31-.31-.47-.08l-7.23,8.73c-.08.16-.16.24-.16.4v13.29a.74.74,0,0,1-.79.78h-4A.74.74,0,0,1,265.31,519.42Z"/><path class="cls-1" d="M300.15,515.64a4.41,4.41,0,0,1,8.81,0,4.3,4.3,0,0,1-4.4,4.41A4.26,4.26,0,0,1,300.15,515.64Z"/><path class="cls-1" d="M334.28,468.77a4.21,4.21,0,0,1,4.4-4.41,4.41,4.41,0,1,1-4.4,4.41Zm1.49,50.65V481.19a.74.74,0,0,1,.79-.78h4a.74.74,0,0,1,.79.78v38.23a.74.74,0,0,1-.79.78h-4A.74.74,0,0,1,335.77,519.42Z"/><path class="cls-1" d="M380.6,492.91v26.51a.73.73,0,0,1-.78.78h-4a.73.73,0,0,1-.78-.78V493.7c0-5.51-3.07-9-7.95-9s-8.17,3.54-8.17,9.13v25.56a.74.74,0,0,1-.79.78h-4a.74.74,0,0,1-.79-.78V481.19a.74.74,0,0,1,.79-.78h4a.74.74,0,0,1,.79.78v3.07c0,.24.15.4.39.16,2.12-3.15,5.5-4.56,9.44-4.56C376,479.86,380.6,484.81,380.6,492.91Z"/><path class="cls-1" d="M389.48,510.22v-.71a.75.75,0,0,1,.79-.79h3.86a.74.74,0,0,1,.78.79v.55c0,3.3,3.23,6.21,8,6.21s7.71-2.75,7.71-6.37c0-4.25-4.25-5.66-8.89-7.23-5.58-1.89-11.95-4.25-11.95-11.72,0-6.77,5.19-10.93,12.9-10.93,8,0,13.13,4.56,13.13,10.93v.15a.74.74,0,0,1-.78.79h-3.62a.75.75,0,0,1-.79-.79v-.31c0-3.46-3.07-6.21-7.94-6.21-4.56,0-7.55,2.51-7.55,6.05,0,4.09,3.93,5.51,8.65,7.16,5.66,1.89,12.42,4.25,12.42,11.8,0,6.68-5.19,11-13.29,11S389.48,516.19,389.48,510.22Z"/><path class="cls-1" d="M453.74,499.91a54.34,54.34,0,0,1-.79,9.36c-1.65,7.94-5.9,11.48-12.9,11.48-4.48,0-7.08-1.57-8.65-4.32-.16-.32-.39-.24-.39.08v18.16a.75.75,0,0,1-.79.79h-4a.75.75,0,0,1-.79-.79V481.19a.74.74,0,0,1,.79-.78h4a.74.74,0,0,1,.79.78v3c0,.32.23.4.39.08,1.81-2.83,4.72-4.48,9.05-4.48,6.52,0,10.38,3.3,12.26,11.09A37.77,37.77,0,0,1,453.74,499.91Zm-5.67.4a32.47,32.47,0,0,0-1.18-9.83c-1.33-3.7-3.46-5.9-7.55-5.9-3.85,0-5.89,2.2-7.07,5.82a32.68,32.68,0,0,0-1.18,9.91,30.27,30.27,0,0,0,1.33,10.14c1.18,3.38,3.07,5.51,6.77,5.51s6.05-2.05,7.39-5.27A30.59,30.59,0,0,0,448.07,500.31Z"/><path class="cls-1" d="M462.62,468.77a4.21,4.21,0,0,1,4.4-4.41,4.41,4.41,0,1,1-4.4,4.41Zm1.49,50.65V481.19a.74.74,0,0,1,.79-.78h4a.74.74,0,0,1,.79.78v38.23a.74.74,0,0,1-.79.78h-4A.74.74,0,0,1,464.11,519.42Z"/><path class="cls-1" d="M500.45,481a.76.76,0,0,1,.39.94L499.9,486c-.08.55-.47.63-.95.47a7.67,7.67,0,0,0-3.69-.47c-4.64.16-8,4.49-8,10.07v23.36a.74.74,0,0,1-.79.78h-4a.74.74,0,0,1-.79-.78V481.19a.74.74,0,0,1,.79-.78h4a.74.74,0,0,1,.79.78v5.12c0,.31.23.31.31.08,1.73-3.78,4.64-6.37,8.89-6.37A7.74,7.74,0,0,1,500.45,481Z"/><path class="cls-1" d="M528.84,510.29a.74.74,0,0,1,.94-.55l3.62.71a.67.67,0,0,1,.55.94c-1.73,5.82-6.68,9.44-13.45,9.44-7.78,0-12.74-4.48-13.84-11.24a56.94,56.94,0,0,1-.47-9.28,61.79,61.79,0,0,1,.31-8.81c.87-6.92,6.14-11.72,13.77-11.72,8.17,0,13.44,5.19,14.07,12.58.24,2.6.24,6,.24,9.52a.75.75,0,0,1-.79.79h-21.7a.29.29,0,0,0-.32.31c0,2,.08,3.93.16,5.43a8.23,8.23,0,0,0,8.65,7.55A8.43,8.43,0,0,0,528.84,510.29Zm-16.91-18.08c-.08,1.65-.16,3.53-.16,5.5a.29.29,0,0,0,.32.32h16.59a.29.29,0,0,0,.32-.32,53.88,53.88,0,0,0-.32-5.43,8.1,8.1,0,0,0-8.34-7.62C515.55,484.66,512.48,487.8,511.93,492.21Z"/><path class="cls-1" d="M542.2,515.64a4.41,4.41,0,0,1,8.81,0,4.41,4.41,0,1,1-8.81,0Z"/><path class="cls-1" d="M595.92,481a.76.76,0,0,1,.39.94l-.94,4.09c-.08.55-.47.63-1,.47a7.67,7.67,0,0,0-3.69-.47c-4.64.16-8,4.49-8,10.07v23.36a.74.74,0,0,1-.79.78h-4a.74.74,0,0,1-.79-.78V481.19a.74.74,0,0,1,.79-.78h4a.74.74,0,0,1,.79.78v5.12c0,.31.23.31.31.08,1.73-3.78,4.64-6.37,8.89-6.37A7.74,7.74,0,0,1,595.92,481Z"/><path class="cls-1" d="M624.31,510.29a.74.74,0,0,1,.94-.55l3.62.71a.67.67,0,0,1,.55.94c-1.73,5.82-6.69,9.44-13.45,9.44-7.79,0-12.74-4.48-13.84-11.24a56.94,56.94,0,0,1-.47-9.28,61.79,61.79,0,0,1,.31-8.81c.87-6.92,6.14-11.72,13.77-11.72,8.17,0,13.44,5.19,14.07,12.58.24,2.6.24,6,.24,9.52a.75.75,0,0,1-.79.79h-21.7a.29.29,0,0,0-.32.31c0,2,.08,3.93.16,5.43a8.23,8.23,0,0,0,8.65,7.55A8.43,8.43,0,0,0,624.31,510.29ZM607.4,492.21c-.08,1.65-.16,3.53-.16,5.5a.29.29,0,0,0,.32.32h16.59a.29.29,0,0,0,.31-.32,54.07,54.07,0,0,0-.31-5.43,8.1,8.1,0,0,0-8.34-7.62C611,484.66,608,487.8,607.4,492.21Z"/><path class="cls-1" d="M653.56,464.92h1.65a.74.74,0,0,1,.79.78v3.23a.74.74,0,0,1-.79.78H653.8c-5,0-6.45,2.68-6.45,8.42v2a.33.33,0,0,0,.31.32h7.39a.74.74,0,0,1,.79.78v3.07a.75.75,0,0,1-.79.79h-7.39a.33.33,0,0,0-.31.31v34.06a.74.74,0,0,1-.79.78h-4a.74.74,0,0,1-.79-.78V485.36a.33.33,0,0,0-.31-.31h-4.17a.75.75,0,0,1-.79-.79v-3.07a.74.74,0,0,1,.79-.78h4.17a.33.33,0,0,0,.31-.32v-2.2C641.76,468.77,644.67,464.92,653.56,464.92Zm11.48.23h4a.75.75,0,0,1,.79.79v53.48a.74.74,0,0,1-.79.78h-4a.73.73,0,0,1-.78-.78V465.94A.74.74,0,0,1,665,465.15Z"/><path class="cls-1" d="M702.32,510.29a.74.74,0,0,1,.94-.55l3.62.71a.67.67,0,0,1,.55.94c-1.73,5.82-6.69,9.44-13.45,9.44-7.79,0-12.74-4.48-13.84-11.24a56.94,56.94,0,0,1-.47-9.28,61.79,61.79,0,0,1,.31-8.81c.87-6.92,6.14-11.72,13.76-11.72,8.18,0,13.45,5.19,14.08,12.58.24,2.6.24,6,.24,9.52a.75.75,0,0,1-.79.79h-21.7a.29.29,0,0,0-.32.31c0,2,.08,3.93.16,5.43a8.23,8.23,0,0,0,8.65,7.55A8.43,8.43,0,0,0,702.32,510.29Zm-16.91-18.08c-.08,1.65-.16,3.53-.16,5.5a.29.29,0,0,0,.32.32h16.59a.29.29,0,0,0,.31-.32,54.07,54.07,0,0,0-.31-5.43,8.1,8.1,0,0,0-8.34-7.62C689,484.66,686,487.8,685.41,492.21Z"/><path class="cls-1" d="M717,509.35a81.14,81.14,0,0,1-.47-9.12c0-3.46.24-6.53.47-9.05.94-6.76,6.29-11.4,13.84-11.4s13,4.56,13.84,10.46l.24,1.65a.72.72,0,0,1-.71.87l-4,.23a.79.79,0,0,1-.86-.71,3.47,3.47,0,0,0-.08-.94c-.47-3.54-3.7-6.68-8.42-6.68a8,8,0,0,0-8.33,7.62,81.5,81.5,0,0,0,0,16.13c.55,4.48,3.61,7.55,8.33,7.55s8-3.15,8.42-6.77c0-.23.08-.39.08-.63.08-.55.39-.78.86-.7l3.93.31c.4.08.71.32.71.71v.31a3.94,3.94,0,0,1-.16.95c-.7,6.13-6.21,10.69-13.84,10.69S718,516.27,717,509.35Z"/><path class="cls-1" d="M768.93,484.81h-7.48a.34.34,0,0,0-.31.32v23.59c0,5.11,2,6.61,6.13,6.61h1.34a.74.74,0,0,1,.79.78v3.31a.7.7,0,0,1-.79.78c-.79,0-1.57.08-2.44.08-6.21,0-10.46-1.81-10.46-9.83V485.13a.33.33,0,0,0-.31-.32h-3.93a.74.74,0,0,1-.79-.78v-2.84a.74.74,0,0,1,.79-.78h3.93a.33.33,0,0,0,.31-.32v-9a.75.75,0,0,1,.79-.79h3.85a.75.75,0,0,1,.79.79v9a.34.34,0,0,0,.31.32h7.48a.73.73,0,0,1,.78.78V484A.73.73,0,0,1,768.93,484.81Z"/></g></g></svg>